<svg xmlns="http://www.w3.org/2000/svg" width="24" height="24" viewBox="0 0 24 24">
  <g id="Group_3" data-name="Group 3" transform="translate(-27.667 -384.667)">
    <g id="Group_2" data-name="Group 2" transform="translate(27.667 384.667)">
      <circle id="Ellipse_1" data-name="Ellipse 1" cx="12" cy="12" r="12" fill="#1d2121"/>
      <path id="Icon_Color" data-name="Icon Color" d="M2.566,12.632a2.666,2.666,0,0,1-.969-.185,2.362,2.362,0,0,1-.845-.567,2.361,2.361,0,0,1-.567-.845A2.652,2.652,0,0,1,0,10.066,2.6,2.6,0,0,1,.185,9.1a2.494,2.494,0,0,1,.567-.851l1.554-1.6a2.526,2.526,0,0,1,.845-.561A2.574,2.574,0,0,1,4.12,5.9a2.5,2.5,0,0,1,.555.062,2.553,2.553,0,0,1,.531.185l-.617.617A1.421,1.421,0,0,0,4.361,6.7a1.551,1.551,0,0,0-.241-.018A1.779,1.779,0,0,0,2.862,7.2L1.218,8.914A1.675,1.675,0,0,0,.79,10.066a1.72,1.72,0,0,0,.518,1.258,1.937,1.937,0,0,0,.58.383,1.767,1.767,0,0,0,1.357,0,1.937,1.937,0,0,0,.58-.383L5.415,9.782a1.662,1.662,0,0,0,.444-.746,1.735,1.735,0,0,0,.012-.845L6.5,7.574a2.59,2.59,0,0,1,.173,1.449,2.353,2.353,0,0,1-.7,1.314l-1.7,1.647a2.331,2.331,0,0,1-.737.462A2.661,2.661,0,0,1,2.566,12.632ZM3.923,9.153a.386.386,0,0,1-.148-.031.313.313,0,0,1-.124-.093l-.044-.046a.346.346,0,0,1-.079-.225.392.392,0,0,1,.123-.284L8.425,3.663a.388.388,0,0,1,.567,0,.371.371,0,0,1,.111.271.411.411,0,0,1-.111.284L4.206,9.029a.428.428,0,0,1-.135.093A.387.387,0,0,1,3.923,9.153Zm4.552-2.43a3.341,3.341,0,0,1-.494-.037A2.031,2.031,0,0,1,7.5,6.55l.629-.629a1.257,1.257,0,0,0,.173.012h.173A1.776,1.776,0,0,0,9.159,5.8a1.756,1.756,0,0,0,.574-.383l1.591-1.6a1.68,1.68,0,0,0,.518-1.246,1.722,1.722,0,0,0-.518-1.259,1.924,1.924,0,0,0-.58-.382,1.766,1.766,0,0,0-1.357,0,1.924,1.924,0,0,0-.58.382L7.216,2.85a1.671,1.671,0,0,0-.462.832,1.84,1.84,0,0,0,.031.932l-.617.617A2.569,2.569,0,0,1,5.946,3.7a2.477,2.477,0,0,1,.715-1.406L8.252.753A2.361,2.361,0,0,1,9.1.185a2.623,2.623,0,0,1,1.936,0,2.361,2.361,0,0,1,.845.567,2.362,2.362,0,0,1,.567.845,2.666,2.666,0,0,1,.185.969,2.616,2.616,0,0,1-.185.962,2.5,2.5,0,0,1-.567.851L10.288,5.97a2.524,2.524,0,0,1-.845.561A2.587,2.587,0,0,1,8.475,6.723Z" transform="translate(5.684 5.684)" fill="#fbfbfb"/>
    </g>
  </g>
</svg>
