<svg xmlns="http://www.w3.org/2000/svg" width="38" height="38" viewBox="0 0 38 38">
  <g id="Group_3" data-name="Group 3" transform="translate(-27.667 -384.667)">
    <g id="Group_2" data-name="Group 2" transform="translate(27.667 384.667)">
      <circle id="Ellipse_1" data-name="Ellipse 1" cx="19" cy="19" r="19" fill="#f93" opacity="0.2"/>
      <g id="Icon_Link" data-name="Icon/Link" transform="translate(9 9)">
        <path id="Icon_Color" data-name="Icon Color" d="M4.063,20a4.221,4.221,0,0,1-1.534-.293,3.74,3.74,0,0,1-1.337-.9,3.738,3.738,0,0,1-.9-1.338A4.2,4.2,0,0,1,0,15.937a4.121,4.121,0,0,1,.293-1.523,3.949,3.949,0,0,1,.9-1.348l2.461-2.539A4,4,0,0,1,4.99,9.639a4.075,4.075,0,0,1,1.533-.3,3.965,3.965,0,0,1,.879.1,4.043,4.043,0,0,1,.84.293l-.977.976a2.25,2.25,0,0,0-.361-.088,2.456,2.456,0,0,0-.381-.029,2.816,2.816,0,0,0-1.992.82l-2.6,2.707a2.652,2.652,0,0,0-.678,1.824,2.723,2.723,0,0,0,.82,1.992,3.066,3.066,0,0,0,.918.606,2.8,2.8,0,0,0,2.149,0,3.066,3.066,0,0,0,.918-.606l2.519-2.441a2.631,2.631,0,0,0,.7-1.181A2.748,2.748,0,0,0,9.3,12.969l1-.976a4.1,4.1,0,0,1,.274,2.294,3.726,3.726,0,0,1-1.114,2.08l-2.69,2.608a3.691,3.691,0,0,1-1.167.732A4.214,4.214,0,0,1,4.063,20Zm2.148-5.508a.612.612,0,0,1-.234-.049.5.5,0,0,1-.2-.147l-.07-.073a.549.549,0,0,1-.125-.356.62.62,0,0,1,.195-.449L13.339,5.8a.615.615,0,0,1,.9,0,.587.587,0,0,1,.176.43.651.651,0,0,1-.176.449L6.66,14.3a.677.677,0,0,1-.214.147A.613.613,0,0,1,6.211,14.492Zm7.207-3.847a5.29,5.29,0,0,1-.781-.058,3.215,3.215,0,0,1-.762-.215l1-1a1.99,1.99,0,0,0,.274.019h.274A2.811,2.811,0,0,0,14.5,9.18a2.781,2.781,0,0,0,.908-.606l2.519-2.539a2.66,2.66,0,0,0,.82-1.972,2.727,2.727,0,0,0-.82-1.993,3.046,3.046,0,0,0-.918-.605,2.8,2.8,0,0,0-2.148,0,3.046,3.046,0,0,0-.918.605l-2.52,2.442a2.646,2.646,0,0,0-.732,1.318A2.913,2.913,0,0,0,10.742,7.3l-.976.976a4.068,4.068,0,0,1-.352-2.422,3.923,3.923,0,0,1,1.132-2.226l2.52-2.441A3.738,3.738,0,0,1,14.4.293a4.154,4.154,0,0,1,3.066,0,3.738,3.738,0,0,1,1.338.9,3.741,3.741,0,0,1,.9,1.337A4.221,4.221,0,0,1,20,4.063a4.141,4.141,0,0,1-.293,1.523,3.958,3.958,0,0,1-.9,1.348L16.289,9.453a4,4,0,0,1-1.338.889A4.1,4.1,0,0,1,13.418,10.645Z" fill="#f93"/>
      </g>
    </g>
  </g>
</svg>
