<svg xmlns="http://www.w3.org/2000/svg" width="9.625" height="11" viewBox="0 0 9.625 11">
  <path id="Icon_awesome-copy" data-name="Icon awesome-copy" d="M6.875,9.625v.859A.516.516,0,0,1,6.36,11H.516A.516.516,0,0,1,0,10.485V2.578a.516.516,0,0,1,.516-.516H2.063v6.36a1.2,1.2,0,0,0,1.2,1.2Zm0-7.391V0H3.266A.516.516,0,0,0,2.75.516V8.422a.516.516,0,0,0,.516.516H9.11a.516.516,0,0,0,.516-.516V2.75H7.391A.517.517,0,0,1,6.875,2.234Zm2.6-.667L8.057.151A.516.516,0,0,0,7.693,0h-.13V2.063H9.625v-.13a.516.516,0,0,0-.151-.365Z" fill="#1d2121"/>
</svg>
